<svg xmlns:dc="http://purl.org/dc/elements/1.1/" xmlns:cc="http://creativecommons.org/ns#" xmlns:rdf="http://www.w3.org/1999/02/22-rdf-syntax-ns#" xmlns:svg="http://www.w3.org/2000/svg" xmlns="http://www.w3.org/2000/svg" viewBox="0 0 1333.3333 232" height="232" width="1333.3333" xml:space="preserve" id="svg2" version="1.1"><metadata id="metadata8"><rdf:RDF><cc:Work rdf:about=""><dc:format>image/svg+xml</dc:format><dc:type rdf:resource="http://purl.org/dc/dcmitype/StillImage"/></cc:Work></rdf:RDF></metadata><defs id="defs6"><clipPath id="clipPath20" clipPathUnits="userSpaceOnUse"><path id="path18" d="m 210.707,48.82 h 787.387 v 76.328 H 210.707 Z"/></clipPath><clipPath id="clipPath30" clipPathUnits="userSpaceOnUse"><path id="path28" d="M 0.695,0 H 174.668 V 173.973 H 0.695 Z"/></clipPath><clipPath id="clipPath40" clipPathUnits="userSpaceOnUse"><path id="path38" d="M 1,0 H 174 V 173.973 H 1 Z"/></clipPath><clipPath id="clipPath50" clipPathUnits="userSpaceOnUse"><path id="path48" d="m 90,47.551 h 37.207 V 90 H 90 Z"/></clipPath><clipPath id="clipPath60" clipPathUnits="userSpaceOnUse"><path id="path58" d="M 48.156,85 H 85 v 41.426 H 48.156 Z"/></clipPath></defs><g transform="matrix(1.3333333,0,0,1.3333333,0,5.8e-6)" id="g10"><g id="g12"/><g id="g14"><g clip-path="url(#clipPath20)" id="g16"><path id="path22" style="fill:#ffffff;fill-opacity:1;fill-rule:nonzero;stroke:none" d="M 221.793,123.898 H 210.738 V 50.906 h 45.778 v 8.969 h -34.723 v 23.043 h 28.777 v 8.867 h -28.777 z m 56.203,0 H 266.941 V 72.18 h 9.907 l 0.941,9.8 c 1.805,-3.406 4.324,-6.101 7.547,-8.089 3.242,-1.977 7.156,-2.961 11.742,-2.961 v 11.574 h -3.023 c -3.059,0 -5.789,0.5 -8.196,1.5 -2.39,1.016 -4.304,2.719 -5.734,5.109 -1.418,2.407 -2.129,5.731 -2.129,9.969 z m 51.305,1.254 c -5.074,0 -9.582,-1.132 -13.516,-3.398 -3.933,-2.254 -7.012,-5.395 -9.238,-9.43 -2.211,-4.031 -3.317,-8.722 -3.317,-14.074 0,-5.426 1.094,-10.188 3.274,-14.289 2.199,-4.102 5.258,-7.297 9.176,-9.59 3.937,-2.297 8.511,-3.441 13.722,-3.441 5.063,0 9.477,1.125 13.246,3.379 3.754,2.265 6.672,5.273 8.758,9.027 2.086,3.754 3.129,7.891 3.129,12.41 0,0.695 -0.019,1.438 -0.062,2.231 -0.043,0.808 -0.09,1.695 -0.149,2.671 h -40.269 c 0.347,5.004 2.004,8.805 4.965,11.407 2.945,2.613 6.375,3.922 10.281,3.922 3.113,0 5.734,-0.719 7.863,-2.149 2.113,-1.418 3.691,-3.344 4.731,-5.777 h 11.074 c -1.387,4.867 -4.157,8.933 -8.297,12.199 -4.133,3.27 -9.254,4.902 -15.371,4.902 z m 0,-45.152 c -3.684,0 -6.953,1.09 -9.805,3.273 -2.848,2.2 -4.586,5.485 -5.211,9.868 h 29.176 C 343.266,89.105 341.848,85.91 339.207,83.547 336.566,81.184 333.262,80 329.301,80 Z m 60.875,45.152 c -5.074,0 -9.571,-1.132 -13.492,-3.398 -3.934,-2.254 -7.016,-5.395 -9.239,-9.43 -2.226,-4.031 -3.34,-8.722 -3.34,-14.074 0,-5.426 1.102,-10.188 3.297,-14.289 2.184,-4.102 5.243,-7.297 9.176,-9.59 3.922,-2.297 8.488,-3.441 13.703,-3.441 5.074,0 9.489,1.125 13.242,3.379 3.754,2.265 6.672,5.273 8.758,9.027 2.086,3.754 3.129,7.891 3.129,12.41 0,0.695 -0.012,1.438 -0.043,2.231 -0.039,0.808 -0.094,1.695 -0.164,2.671 h -40.25 c 0.348,5.004 2,8.805 4.961,11.407 2.949,2.613 6.367,3.922 10.262,3.922 3.129,0 5.758,-0.719 7.883,-2.149 2.113,-1.418 3.691,-3.344 4.734,-5.777 h 11.055 c -1.391,4.867 -4.153,8.933 -8.282,12.199 -4.14,3.27 -9.273,4.902 -15.39,4.902 z m 0,-45.152 c -3.684,0 -6.953,1.09 -9.801,3.273 -2.852,2.2 -4.59,5.485 -5.215,9.868 h 29.199 C 404.148,89.105 402.723,85.91 400.082,83.547 397.441,81.184 394.137,80 390.176,80 Z m 60.273,45.152 c -5.008,0 -9.422,-1.183 -13.246,-3.547 -3.82,-2.363 -6.812,-5.593 -8.965,-9.695 -2.156,-4.101 -3.234,-8.762 -3.234,-13.976 0,-5.211 1.078,-9.856 3.234,-13.93 2.153,-4.059 5.164,-7.258 9.028,-9.594 3.851,-2.32 8.281,-3.48 13.285,-3.48 4.101,0 7.703,0.797 10.804,2.398 3.086,1.598 5.497,3.856 7.235,6.777 V 48.82 h 11.055 v 75.078 h -9.907 l -1.148,-8.027 c -1.668,2.434 -3.961,4.59 -6.879,6.465 -2.922,1.879 -6.676,2.816 -11.262,2.816 z m 1.981,-9.593 c 4.726,0 8.605,-1.633 11.636,-4.903 3.016,-3.265 4.524,-7.472 4.524,-12.617 0,-5.215 -1.508,-9.441 -4.524,-12.68 -3.031,-3.226 -6.91,-4.836 -11.636,-4.836 -4.727,0 -8.621,1.61 -11.68,4.836 -3.059,3.239 -4.59,7.465 -4.59,12.68 0,3.406 0.695,6.43 2.086,9.074 1.391,2.641 3.324,4.703 5.797,6.192 2.461,1.504 5.258,2.254 8.387,2.254 z m 65.379,9.593 c -4.934,0 -9.371,-1.132 -13.305,-3.398 -3.922,-2.254 -7.027,-5.418 -9.32,-9.492 -2.297,-4.059 -3.442,-8.801 -3.442,-14.223 0,-5.422 1.16,-10.168 3.481,-14.242 2.336,-4.063 5.484,-7.223 9.449,-9.488 3.961,-2.254 8.375,-3.379 13.242,-3.379 4.934,0 9.363,1.125 13.285,3.379 3.934,2.265 7.063,5.425 9.383,9.488 2.336,4.074 3.504,8.82 3.504,14.242 0,5.422 -1.168,10.164 -3.504,14.223 -2.32,4.074 -5.461,7.238 -9.426,9.492 -3.961,2.266 -8.41,3.398 -13.347,3.398 z m 0,-9.488 c 2.644,0 5.089,-0.66 7.343,-1.984 2.266,-1.321 4.094,-3.285 5.485,-5.903 1.39,-2.597 2.086,-5.843 2.086,-9.738 0,-3.891 -0.684,-7.137 -2.047,-9.738 -1.348,-2.613 -3.156,-4.582 -5.422,-5.903 -2.25,-1.32 -4.699,-1.98 -7.34,-1.98 -2.641,0 -5.098,0.66 -7.363,1.98 -2.25,1.321 -4.074,3.29 -5.461,5.903 -1.391,2.601 -2.086,5.847 -2.086,9.738 0,3.895 0.695,7.141 2.086,9.738 1.387,2.618 3.195,4.582 5.422,5.903 2.222,1.324 4.656,1.984 7.297,1.984 z m 49.324,8.234 H 556.078 V 72.18 h 9.801 l 0.941,7.3 c 1.668,-2.644 3.871,-4.73 6.61,-6.257 2.754,-1.532 5.937,-2.293 9.55,-2.293 8.204,0 13.907,3.23 17.102,9.695 1.879,-2.988 4.395,-5.352 7.551,-7.09 3.168,-1.738 6.597,-2.605 10.281,-2.605 6.465,0 11.539,1.945 15.223,5.836 3.687,3.894 5.527,9.699 5.527,17.414 v 29.718 h -11.051 v -28.57 c 0,-10.012 -3.824,-15.016 -11.472,-15.016 -3.891,0 -7.075,1.461 -9.551,4.379 -2.461,2.922 -3.692,7.094 -3.692,12.516 v 26.691 h -11.054 v -28.57 c 0,-10.012 -3.856,-15.016 -11.574,-15.016 -3.825,0 -6.973,1.461 -9.446,4.379 -2.461,2.922 -3.691,7.094 -3.691,12.516 z m 122.187,0 H 678.27 V 50.906 h 13.035 L 716.016,99.5 740.625,50.906 h 13.035 v 72.992 h -11.055 v -53.91 l -22.312,43.485 h -8.551 L 689.32,70.094 Z m 102.922,1.254 c -4.937,0 -9.371,-1.132 -13.304,-3.398 -3.922,-2.254 -7.028,-5.418 -9.325,-9.492 -2.293,-4.059 -3.441,-8.801 -3.441,-14.223 0,-5.422 1.164,-10.168 3.484,-14.242 2.336,-4.063 5.485,-7.223 9.449,-9.488 3.961,-2.254 8.375,-3.379 13.243,-3.379 4.933,0 9.363,1.125 13.285,3.379 3.933,2.265 7.062,5.425 9.383,9.488 2.336,4.074 3.504,8.82 3.504,14.242 0,5.422 -1.168,10.164 -3.504,14.223 -2.321,4.074 -5.465,7.238 -9.426,9.492 -3.961,2.266 -8.41,3.398 -13.348,3.398 z m 0,-9.488 c 2.641,0 5.09,-0.66 7.34,-1.984 2.266,-1.321 4.098,-3.285 5.484,-5.903 1.391,-2.597 2.086,-5.843 2.086,-9.738 0,-3.891 -0.679,-7.137 -2.043,-9.738 -1.347,-2.613 -3.156,-4.582 -5.421,-5.903 -2.254,-1.32 -4.7,-1.98 -7.34,-1.98 -2.645,0 -5.098,0.66 -7.364,1.98 -2.254,1.321 -4.074,3.29 -5.464,5.903 -1.391,2.601 -2.086,5.847 -2.086,9.738 0,3.895 0.695,7.141 2.086,9.738 1.39,2.618 3.199,4.582 5.421,5.903 2.227,1.324 4.661,1.984 7.301,1.984 z m 67.363,9.488 c -4.031,0 -7.597,-0.8 -10.699,-2.398 -3.086,-1.602 -5.535,-3.859 -7.34,-6.777 l -1.148,7.921 h -9.906 V 48.82 h 11.054 v 31.387 c 1.668,-2.43 3.961,-4.586 6.879,-6.465 2.922,-1.875 6.676,-2.812 11.262,-2.812 5.008,0 9.422,1.179 13.246,3.543 3.82,2.363 6.824,5.597 9.008,9.699 2.195,4.101 3.297,8.758 3.297,13.973 0,5.214 -1.102,9.851 -3.297,13.91 -2.184,4.074 -5.188,7.277 -9.008,9.613 -3.824,2.324 -8.273,3.484 -13.348,3.484 z m -1.878,-9.593 c 4.726,0 8.621,-1.621 11.679,-4.86 3.059,-3.226 4.59,-7.445 4.59,-12.66 0,-3.406 -0.695,-6.43 -2.086,-9.07 -1.39,-2.645 -3.305,-4.715 -5.738,-6.215 -2.43,-1.488 -5.246,-2.231 -8.445,-2.231 -4.727,0 -8.606,1.633 -11.637,4.899 -3.016,3.269 -4.524,7.473 -4.524,12.617 0,5.215 1.508,9.434 4.524,12.66 3.031,3.239 6.91,4.86 11.637,4.86 z m 45.757,-53.18 c -2.086,0 -3.804,-0.649 -5.152,-1.941 -1.363,-1.278 -2.043,-2.891 -2.043,-4.84 0,-1.946 0.68,-3.563 2.043,-4.856 1.348,-1.281 3.066,-1.922 5.152,-1.922 2.086,0 3.809,0.641 5.172,1.922 1.348,1.293 2.024,2.91 2.024,4.856 0,1.949 -0.676,3.562 -2.024,4.84 -1.363,1.292 -3.086,1.941 -5.172,1.941 z m 5.528,61.519 H 897.957 V 72.18 h 11.055 z m 25.648,0 H 923.609 V 48.82 h 11.051 z m 38.168,1.254 c -5.074,0 -9.582,-1.132 -13.516,-3.398 -3.921,-2.254 -6.992,-5.395 -9.218,-9.43 -2.223,-4.031 -3.336,-8.722 -3.336,-14.074 0,-5.426 1.09,-10.188 3.273,-14.289 2.199,-4.102 5.258,-7.297 9.176,-9.59 3.938,-2.297 8.512,-3.441 13.723,-3.441 5.078,0 9.492,1.125 13.246,3.379 3.754,2.265 6.672,5.273 8.758,9.027 2.086,3.754 3.128,7.891 3.128,12.41 0,0.695 -0.023,1.438 -0.062,2.231 -0.027,0.808 -0.078,1.695 -0.148,2.671 h -40.25 c 0.347,5.004 1.996,8.805 4.945,11.407 2.961,2.613 6.387,3.922 10.281,3.922 3.129,0 5.746,-0.719 7.86,-2.149 2.128,-1.418 3.714,-3.344 4.757,-5.777 h 11.051 c -1.391,4.867 -4.156,8.933 -8.301,12.199 -4.129,3.27 -9.25,4.902 -15.367,4.902 z m 0,-45.152 c -3.683,0 -6.953,1.09 -9.805,3.273 -2.847,2.2 -4.585,5.485 -5.211,9.868 h 29.196 C 986.801,89.105 985.375,85.91 982.734,83.547 980.09,81.184 976.789,80 972.828,80 Z"/></g></g><g id="g24"><g clip-path="url(#clipPath30)" id="g26"><path id="path32" style="fill:#ffffff;fill-opacity:1;fill-rule:nonzero;stroke:none" d="M 0.695,86.984 C 0.695,38.945 39.641,0 87.68,0 c 48.043,0 86.988,38.945 86.988,86.984 0,48.043 -38.945,86.989 -86.988,86.989 -48.039,0 -86.985,-38.946 -86.985,-86.989 z M 87.68,167.09 c 44.242,0 80.105,-35.863 80.105,-80.106 0,-44.238 -35.863,-80.101 -80.105,-80.101 -44.239,0 -80.102,35.863 -80.102,80.101 0,44.243 35.863,80.106 80.102,80.106 z"/></g></g><g id="g34"><g clip-path="url(#clipPath40)" id="g36"><path id="path42" style="fill:#ffffff;fill-opacity:1;fill-rule:nonzero;stroke:none" d="m 173.797,86.988 c 0,47.559 -38.555,86.114 -86.117,86.114 -47.559,0 -86.114,-38.555 -86.114,-86.114 0,-47.562 38.555,-86.117 86.114,-86.117 47.562,0 86.117,38.555 86.117,86.117 z"/></g></g><g id="g44"><g clip-path="url(#clipPath50)" id="g46"><path id="path52" style="fill:#2e2e2e;fill-opacity:1;fill-rule:nonzero;stroke:none" d="m 123.793,54.512 -3.563,-3.563 c -4.535,-4.535 -11.878,-4.535 -16.304,0 l -9.719,9.719 c -4.211,4.211 -4.535,10.906 -0.758,15.441 l -2.804,2.805 v 10.691 l 8.097,-8.097 c 2.051,1.617 4.641,2.484 7.235,2.484 2.914,0 5.937,-1.082 8.207,-3.347 l 9.714,-9.719 c 4.43,-4.645 4.43,-11.985 -0.105,-16.414 z m -5.293,11.015 -9.715,9.719 c -1.297,1.293 -3.133,1.512 -4.644,0.754 1.187,-1.512 1.078,-3.672 -0.325,-4.965 -1.402,-1.406 -3.562,-1.406 -5.074,-0.219 -0.324,-0.539 -0.433,-1.187 -0.433,-1.836 0,-1.078 0.433,-2.05 1.187,-2.804 l 9.719,-9.719 c 0.758,-0.754 1.836,-1.187 2.808,-1.187 0.973,0 2.051,0.433 2.805,1.187 l 3.567,3.563 c 1.617,1.402 1.617,3.886 0.105,5.507 z"/></g></g><g id="g54"><g clip-path="url(#clipPath60)" id="g56"><path id="path62" style="fill:#2e2e2e;fill-opacity:1;fill-rule:nonzero;stroke:none" d="M 84.164,95.977 V 85.285 l -7.449,7.449 C 72.18,89.066 65.484,89.281 61.273,93.492 l -9.714,9.719 c -4.536,4.535 -4.536,11.875 0,16.301 l 3.562,3.566 c 2.266,2.266 5.184,3.348 8.207,3.348 3.024,0 5.938,-1.082 8.203,-3.348 l 9.719,-9.719 c 4.211,-4.211 4.535,-10.797 0.863,-15.332 z m -8.312,12.199 -9.719,9.719 c -1.512,1.511 -4.102,1.511 -5.613,0 l -3.563,-3.563 c -0.758,-0.758 -1.187,-1.73 -1.187,-2.809 0,-1.078 0.429,-2.05 1.187,-2.808 L 66.672,99 c 0.758,-0.758 1.836,-1.188 2.808,-1.188 0.758,0 1.512,0.215 2.161,0.645 -0.539,1.406 -0.215,2.918 0.863,3.996 0.758,0.758 1.726,1.082 2.699,1.082 0.434,0 0.863,-0.109 1.297,-0.219 0.863,1.512 0.648,3.457 -0.648,4.86 z"/></g></g><g id="g64"><path id="path66" style="fill:#2e2e2e;fill-opacity:1;fill-rule:nonzero;stroke:none" d="M 68.941,78.59 67.43,86.582 81.359,81.613 Z"/><path id="path68" style="fill:#2e2e2e;fill-opacity:1;fill-rule:nonzero;stroke:none" d="m 84.273,66.066 -8.207,2.161 7.774,11.335 z"/><path id="path70" style="fill:#2e2e2e;fill-opacity:1;fill-rule:nonzero;stroke:none" d="m 94.961,108.934 7.344,-7.993 -13.067,-4.64 z"/><path id="path72" style="fill:#2e2e2e;fill-opacity:1;fill-rule:nonzero;stroke:none" d="m 102.844,95.758 0.539,-5.828 -8.098,3.129 z"/></g></g></svg>