<svg version="1.0" xmlns="http://www.w3.org/2000/svg" preserveAspectRatio="xMidYMid meet" width="78" height="78" viewBox="0 0 85 85">
<g fill="#fff" stroke="none" transform="translate(-48.000000,130.000000) scale(0.100000,-0.100000)">
<path d="M998 1182 c-73 -73 -78 -81 -78 -121 0 -23 5 -51 11 -62 8 -16 7 -25 -5 -38 -10 -11 -16 -36 -16 -66 l0 -49 39 38 c38 37 40 38 75 26 58 -19 94 -4 168 68 105 101 111 160 23 241 -39 36 -50 41 -92 41 -45 0 -49 -3 -125 -78z m171 -18 c46 -39 41 -62 -34 -133 -66 -63 -85 -69 -85 -26 0 24 -30 42 -50 30 -5 -3 -10 2 -10 12 0 19 118 143 136 143 7 0 26 -12 43 -26z"/>
<path d="M808 1066 l-38 -11 32 -49 32 -49 9 33 c4 17 7 44 5 60 -3 26 -4 27 -40 16z"/>
<path d="M688 915 c-2 -19 -1 -35 3 -35 4 0 33 10 65 22 l57 22 -49 13 c-69 18 -71 17 -76 -22z"/>
<path d="M811 847 c-33 -35 -34 -35 -68 -20 -53 22 -89 8 -161 -61 -71 -68 -92 -101 -92 -144 0 -63 83 -142 150 -142 44 0 96 34 158 105 50 57 59 85 44 139 -7 27 -7 45 -1 53 6 6 9 32 7 58 l-3 46 -34 -34z m-87 -111 c4 -15 15 -26 28 -28 12 -2 23 -9 26 -15 5 -16 -116 -143 -137 -143 -17 0 -81 58 -81 74 0 17 123 136 141 136 9 0 20 -11 23 -24z"/>
<path d="M1000 823 l-35 -15 28 -10 c32 -11 51 0 45 25 -3 14 -7 14 -38 0z"/>
<path d="M927 716 c15 -31 32 -55 37 -53 5 2 20 17 34 35 l25 32 -35 14 c-19 8 -46 18 -62 22 l-27 6 28 -56z"/>
</g></svg>