<svg fill="#fff" xmlns="http://www.w3.org/2000/svg" version="1.1" xmlns:xlink="http://www.w3.org/1999/xlink" xmlns:svgjs="http://svgjs.dev/svgjs" viewBox="0 0 87.39027427825462 87.39027427825462" height="87.39027427825462" width="87.39027427825462">
<g>
<path d="M0 43.695c0-24.132 19.563-43.695 43.695-43.695 24.132 0 43.695 19.563 43.695 43.695 0 24.132-19.563 43.695-43.695 43.695-24.132 0-43.695-19.563-43.695-43.695zM43.695 83.933c22.223 0 40.237-18.015 40.238-40.238 0-22.223-18.015-40.237-40.238-40.237-22.223 0-40.237 18.015-40.237 40.237 0 22.223 18.015 40.237 40.237 40.238z" data-fill-palette-color="accent" stroke="" fill="#fff"/>
<ellipse rx="43.25818576773604" ry="43.25818576773604" cx="43.69513713912731" cy="43.69513713912731" stroke="transparent" stroke-width="0" fill-opacity="1" data-fill-palette-color="accent" fill="#fff"/>
</g>
<g transform="matrix(1,0,0,1,23.84084630019641,23.88494270252995)">
<svg viewBox="0 0 39.7085816778618 39.62038887319472" height="39.62038887319472" width="39.7085816778618">
<g>
<svg xmlns="http://www.w3.org/2000/svg" xmlns:xlink="http://www.w3.org/1999/xlink" version="1.1" x="0" y="0" viewBox="13.649999618530273 13.05000114440918 73.21260833740234 73.05000305175781" enable-background="new 0 0 100 100" xml:space="preserve" height="39.62038887319472" width="39.7085816778618" class="icon-x-0" data-fill-palette-color="quaternary" id="x-0">
<g fill="#2e2e2e" data-fill-palette-color="quaternary">
<g fill="#2e2e2e" data-fill-palette-color="quaternary">
<path d="M83.7 19.5l-3.3-3.3h0c-4.2-4.2-11-4.2-15.1 0l-9 9c-3.9 3.9-4.2 10.1-0.7 14.3L53 42.1v9.9l7.5-7.5c1.9 1.5 4.3 2.3 6.7 2.3 2.7 0 5.5-1 7.6-3.1l9-9C87.9 30.4 87.9 23.6 83.7 19.5zM78.8 29.7l-9 9c-1.2 1.2-2.9 1.4-4.3 0.7 1.1-1.4 1-3.4-0.3-4.6-1.3-1.3-3.3-1.3-4.7-0.2-0.3-0.5-0.4-1.1-0.4-1.7 0-1 0.4-1.9 1.1-2.6l9-9c0.7-0.7 1.7-1.1 2.6-1.1s1.9 0.4 2.6 1.1c0 0 0 0 0 0l3.3 3.3C80.2 25.9 80.2 28.2 78.8 29.7z" fill="#2e2e2e" data-fill-palette-color="quaternary"/><path d="M47 57.9v-9.9l-6.9 6.9c-4.2-3.4-10.4-3.2-14.3 0.7l-9 9c-4.2 4.2-4.2 11 0 15.1l3.3 3.3c2.1 2.1 4.8 3.1 7.6 3.1s5.5-1 7.6-3.1l9-9c3.9-3.9 4.2-10 0.8-14.2L47 57.9zM39.3 69.2l-9 9c-1.4 1.4-3.8 1.4-5.2 0l-3.3-3.3c-0.7-0.7-1.1-1.6-1.1-2.6s0.4-1.9 1.1-2.6l9-9c0.7-0.7 1.7-1.1 2.6-1.1 0.7 0 1.4 0.2 2 0.6-0.5 1.3-0.2 2.7 0.8 3.7 0.7 0.7 1.6 1 2.5 1 0.4 0 0.8-0.1 1.2-0.2C40.7 66.1 40.5 67.9 39.3 69.2z" fill="#2e2e2e" data-fill-palette-color="quaternary"/><polygon points="32.9,41.8 31.5,49.2 44.4,44.6   " fill="#2e2e2e" data-fill-palette-color="quaternary"/><polygon points="47.1,30.2 39.5,32.2 46.7,42.7   " fill="#2e2e2e" data-fill-palette-color="quaternary"/><polygon points="57,69.9 63.8,62.5 51.7,58.2   " fill="#2e2e2e" data-fill-palette-color="quaternary"/><polygon points="64.3,57.7 64.8,52.3 57.3,55.2   " fill="#2e2e2e" data-fill-palette-color="quaternary"/></g></g></svg></g></svg></g></svg>